<svg width="16" height="7" viewBox="0 0 16 7" fill="none" xmlns="http://www.w3.org/2000/svg">
<path d="M7.92267 6.99763C7.67359 6.99809 7.43219 6.91676 7.2404 6.76775L0.844098 1.77034C0.626392 1.60069 0.489485 1.3569 0.463495 1.09261C0.437505 0.828322 0.524561 0.565176 0.705511 0.361065C0.886461 0.156954 1.14648 0.0285965 1.42837 0.00422933C1.71027 -0.0201378 1.99094 0.0614814 2.20864 0.231132L7.92267 4.70882L13.6367 0.39105C13.7457 0.308027 13.8712 0.246028 14.0059 0.208615C14.1406 0.171203 14.2818 0.159115 14.4215 0.173047C14.5612 0.186979 14.6966 0.226656 14.8198 0.289797C14.9431 0.352938 15.0519 0.438299 15.1398 0.540973C15.2375 0.643741 15.3114 0.764305 15.357 0.895111C15.4026 1.02592 15.419 1.16415 15.4049 1.30114C15.3909 1.43813 15.3469 1.57093 15.2756 1.69123C15.2043 1.81152 15.1073 1.91672 14.9906 2.00022L8.59428 6.82772C8.39697 6.95317 8.16051 7.013 7.92267 6.99763Z" fill="#232323"/>
</svg>
